PathFileType	4	(X/Y/Z)	C:/Users/beibeiliu/ov580/test_trc/User3\sequence.19_training_dense_right.trc
DataRate	CameraRate	NumFrames	NumMarkers	Units	OrigDataRate	OrigDataStartFrame	OrigNumFrames
120	120	22	19	mm	120	241	275
Frame#	Time	ThumbCMC			ThumbMCP			ThumbIP			ThumbTip			IndexMCP			IndexPIP			IndexTip			MiddleMCP			MiddlePIP			MiddleTip			RingMCP			RingPIP			RingTip			PinkyMCP			PinkyPIP			PinkyTip			BackHand1			BackHand2			BackHand3	
		X0	Y0	Z0	X1	Y1	Z1	X2	Y2	Z2	X3	Y3	Z3	X4	Y4	Z4	X5	Y5	Z5	X6	Y6	Z6	X7	Y7	Z7	X8	Y8	Z8	X9	Y9	Z9	X10	Y10	Z10	X11	Y11	Z11	X12	Y12	Z12	X13	Y13	Z13	X14	Y14	Z14	X15	Y15	Z15	X16	Y16	Z16	X17	Y17	Z17	X18	Y18	Z18	
240	2	123.576	-14.2695	37.8034	97.2605	-6.09077	20.1233	81.3932	1.09152	0.10921	66.3533	5.14131	-17.4133	123.759	38.2914	-20.8889	113.149	52.5791	-41.762	103.451	61.7523	-59.4688	140.71	20.4732	-43.5066	128.837	-2.68913	-59.3185	132.121	-23.4707	-22.4493	156.335	5.12123	-42.4796	145.505	-22.3105	-50.5549	144.062	-32.9648	-21.8755	177.94	0.623417	-40.4964	162.864	-16.8639	-53.008	157.053	-35.4472	-30.0805	178.376	9.61519	13.8531	186.829	-4.86077	41.4451	150.352	10.4631	35.1941	
241	2.00833	115.133	-18.8475	41.4948	88.6513	-14.0212	23.0373	71.2287	-6.3571	3.25603	57.7116	-2.0473	-16.435	107.136	33.4005	-12.4001	94.7381	47.3393	-29.9682	81.1622	57.7211	-50.2302	125.394	20.9251	-36.7095	115.557	-3.24858	-55.0592	128.151	-24.7948	-25.9449	144.267	8.03624	-38.8188	137.749	-21.1316	-48.485	141.312	-33.0592	-19.4943	166.335	4.53937	-34.1814	154.202	-14.8385	-50.1325	150.363	-35.9966	-25.0507	165.602	13.4488	18.3551	173.962	-3.20935	42.9438	138.971	8.2941	38.0769	
242	2.01667	107.899	-22.5809	43.7077	85.6173	-19.9677	26.0904	60.6663	-15.3511	9.11349	49.6472	-12.969	-7.48795	94.4569	28.9358	-3.33692	80.7719	44.3736	-23.0928	69.7318	55.7496	-44.3675	115.691	20.006	-31.8058	105.598	-6.44321	-50.4993	120.262	-26.3086	-23.7847	135.749	8.62667	-33.3626	128.374	-19.3402	-46.4293	135.241	-32.453	-13.8355	157.815	6.08232	-30.3637	145.744	-16.4187	-47.7389	141.2	-36.4096	-23.2015	153.267	13.1071	18.8201	168.15	-2.51886	45.6017	130.979	2.82073	45.0473	
243	2.025	102.998	-28.3707	49.0506	79.0094	-25.2993	30.238	55.9546	-18.8303	11.9405	38.5911	-17.839	-1.14095	87.1686	31.6936	-4.26082	71.6492	43.1264	-19.2127	59.4767	54.505	-38.7429	109.457	19.2499	-27.9039	101.42	-4.16273	-50.6818	113.948	-28.1716	-20.4118	126.072	7.99187	-32.3892	120.86	-18.2633	-44.4525	126.423	-33.8136	-16.24	147.151	5.51344	-28.3869	136.946	-15.2207	-45.094	135.987	-33.2149	-24.8783	150.697	13.8754	18.9846	161.507	-3.40503	45.0946	123.636	2.43458	46.2291	
244	2.03333	100.603	-31.6545	49.2854	76.7904	-27.4192	28.4306	50.5857	-22.1956	11.443	33.9735	-22.0884	-0.0803445	85.2256	27.8533	-3.47564	68.1776	42.1256	-19.6474	53.9331	53.3297	-40.3237	102.54	17.6047	-26.3359	98.9167	-6.94646	-48.7781	110.587	-29.5026	-17.4775	124.507	7.24624	-32.8516	122.136	-19.7505	-45.1691	124.08	-34.6218	-11.271	146.167	4.53914	-29.0895	134.149	-16.3771	-44.3178	133.814	-36.6096	-18.829	144.749	12.0371	24.7016	158.291	-5.39476	46.5484	118.234	1.82952	44.319	
245	2.04167	99.2844	-33.0859	49.0372	75.246	-29.8426	28.0775	53.4211	-26.9596	13.1457	35.8956	-26.1255	-2.59777	84.6783	23.1936	-2.7953	66.6738	36.3874	-18.27	55.1947	49.7022	-43.4209	104.285	14.9026	-30.6211	97.9002	-9.76381	-49.356	108.088	-34.0883	-20.6971	126.114	3.53618	-33.1812	119.143	-25.3258	-43.0837	125.268	-37.937	-14.8441	144.917	0.815378	-32.9192	134.37	-19.7261	-43.5659	131.604	-38.1787	-19.8106	143.25	10.2124	20.1429	156.547	-6.9444	48.1041	117.858	-2.83402	46.067	
246	2.05	96.3145	-32.9401	47.6716	74.0091	-31.5586	27.3877	54.085	-29.2966	10.1499	36.2696	-27.2166	-6.33537	85.9526	20.1515	-6.83182	68.1058	35.3131	-25.7307	58.3695	44.5383	-44.9338	105.021	9.83004	-34.1483	101.133	-17.0771	-51.214	108.614	-37.3494	-16.7299	122.193	-1.24075	-32.6971	122.348	-31.7922	-43.8155	126.557	-41.981	-12.7072	145.36	-3.87571	-30.5885	136.773	-23.0753	-45.4083	132.78	-43.8732	-17.4886	147.201	7.91154	19.4685	157.937	-8.19062	46.5921	117.481	-4.13994	45.4029	
247	2.05833	96.2821	-33.2736	47.1749	74.166	-32.4225	26.9299	53.3835	-30.7283	8.33404	36.3534	-30.8216	-5.0682	86.7614	15.5155	-11.3814	72.9068	28.3468	-34.5151	60.2945	36.2117	-57.1594	106.489	2.02806	-35.6248	101.855	-26.2213	-51.5627	110.119	-43.2908	-18.0632	127.86	-10.7168	-39.3441	127.091	-39.6087	-42.869	127.772	-46.8932	-9.85649	150.167	-11.8273	-35.496	138.245	-34.3887	-44.2977	138.829	-49.774	-17.4214	149.516	1.12157	19.2531	155.369	-10.3045	44.959	118.497	-2.74406	40.8198	
248	2.06667	99.8311	-33.5012	44.485	78.1819	-33.8249	26.3987	55.5215	-30.5895	5.1265	38.1381	-32.6555	-7.73713	92.5413	9.35898	-21.2525	83.5636	18.4813	-43.5957	73.5696	24.6833	-67.0914	114.724	-9.0545	-43.8368	106.762	-38.1121	-52.4746	115.639	-49.6292	-16.4876	132.416	-20.3845	-38.0986	127.587	-48.5582	-43.5289	129.867	-52.7345	-7.62252	155.173	-22.4619	-35.0571	144.292	-46.4485	-42.7169	142.073	-57.4305	-11.521	152.13	-1.75555	15.255	163.243	-10.9389	43.1	123.9	-6.12247	35.2267	
249	2.075	103.993	-32.5506	41.9592	79.6687	-33.0099	19.0351	60.2166	-33.5863	1.67784	40.5012	-35.317	-14.265	100.427	1.69738	-32.5312	89.3263	6.87732	-54.3986	84.3793	10.3544	-77.8814	121.397	-21.3408	-48.7685	113.208	-51.1131	-53.6137	122.921	-57.062	-13.0943	137.672	-32.8934	-43.2651	134.913	-61.7856	-39.8701	134.155	-59.7602	-5.78755	157.258	-33.5769	-36.4685	153.174	-60.1136	-40.4109	144.678	-61.8414	-8.62296	153.059	-5.63549	10.8933	162.719	-13.5127	42.2069	129.62	-6.19894	31.4711	
250	2.08333	101.694	-31.0958	35.0721	80.3404	-35.9555	19.0106	59.035	-36.3795	-2.35475	46.323	-40.286	-17.6764	103.92	-8.79385	-40.927	101.029	-7.59498	-62.1901	93.1609	-7.0608	-85.947	127.252	-33.4255	-47.516	122.537	-66.3085	-50.0054	126.304	-64.9353	-10.6725	148.081	-42.5178	-40.1406	142.283	-72.4062	-37.0675	139.153	-65.655	-1.44512	165.119	-45.1389	-35.4087	155.065	-72.0646	-35.4649	149.57	-69.4411	-5.73918	157.292	-10.4615	8.98579	162.212	-14.5392	36.6786	127.031	-8.29523	23.6459	
251	2.09167	102.089	-30.7382	34.5227	85.6377	-37.814	16.4026	64.8279	-41.0158	-3.32818	47.1997	-43.6416	-20.9417	110.665	-21.8696	-41.1834	103.92	-24.3251	-69.7294	104.318	-28.7804	-96.7805	129.977	-46.261	-46.9138	125.188	-80.2278	-42.9196	125.758	-74.3107	-4.86151	149.013	-55.9987	-38.567	146.17	-85.0919	-29.0915	140.085	-71.9044	3.01188	170.742	-57.4847	-33.1897	157.593	-82.2875	-28.7168	149.847	-76.8934	0.882111	160.461	-15.7194	3.04984	167.77	-17.8013	33.6615	130.805	-12.231	19.4332	
252	2.1	104.47	-32.6037	32.8032	84.5556	-38.1207	12.0357	65.5182	-44.0464	-6.40293	52.7817	-50.5725	-19.5643	121.167	-36.0221	-44.8467	114.036	-43.8838	-71.6665	109.49	-51.5151	-97.0672	135.388	-62.5466	-43.853	129.71	-93.4398	-36.5114	128.08	-78.9368	3.57772	152.155	-69.9175	-32.4429	146.581	-96.5869	-18.2242	141.137	-77.6354	11.6954	168.814	-69.6133	-27.3274	160.855	-95.2312	-18.2725	154.5	-83.8026	10.0895	167.088	-23.9827	2.89056	171.043	-20.1796	33.7207	136.357	-15.934	17.0802	
253	2.10833	105.496	-33.3035	29.8225	88.5245	-42.262	15.7098	64.7455	-48.695	-8.1449	49.3617	-53.5493	-18.1275	119.129	-49.5781	-44.748	115.031	-61.9971	-68.2505	112.206	-73.4287	-88.2693	133.989	-75.7459	-37.3465	127.457	-105.961	-21.3028	125.568	-85.465	13.3336	153.277	-84.4312	-24.6488	143.231	-103.988	-5.99543	138.973	-81.3085	20.43	171.586	-83.9094	-17.906	158.074	-104.335	-7.16019	151.95	-88.0592	20.2718	167.587	-34.459	1.84413	168.63	-21.2314	31.6499	138.288	-19.8182	15.3327	
254	2.11667	108.019	-35.3224	34.1792	88.8242	-47.0138	16.6044	68.325	-54.6209	-2.47777	52.5081	-62.3229	-16.2927	120.975	-64.0541	-43.1308	116.504	-78.329	-59.9511	109.514	-96.1114	-83.6422	132.066	-86.1658	-29.1501	122.343	-113.121	-9.33201	124.932	-87.4286	22.8239	149.276	-93.6765	-14.9752	137.917	-109.725	9.24533	136.654	-81.1481	29.4324	169.811	-94.9599	-9.73694	149.758	-108.667	7.21325	148.252	-88.9866	26.8213	169.544	-39.6257	4.68251	167.984	-25.3763	28.7364	135.988	-23.609	15.8144	
255	2.125	106.3	-33.4139	38.3421	85.9041	-47.276	19.1511	62.6876	-55.608	3.85418	45.568	-62.0302	-7.20863	115.253	-70.3429	-33.0468	108.592	-89.2304	-53.1603	104.034	-109.928	-72.0983	126.568	-96.4185	-19.6994	116.134	-117.387	3.13736	118.76	-92.2665	31.0787	144.219	-98.0914	-4.95713	132.068	-111.599	24.0577	131.648	-84.2773	38.4554	163.628	-102.852	-0.0589775	145.948	-114.059	19.9823	142.13	-91.6083	36.7027	165.223	-48.4007	4.52303	169.791	-28.0782	32.5478	133.806	-28.2755	15.6156	
256	2.13333	107.033	-33.6518	37.2321	85.7326	-46.9259	25.5865	62.6384	-54.5767	10.5038	46.6454	-60.878	2.76214	109.54	-77.5998	-27.3019	99.7662	-93.5558	-43.3082	93.6222	-115.409	-58.2533	121.086	-99.1755	-10.9074	107.18	-118.544	14.423	111.749	-87.7052	40.3554	130.159	-104.927	3.46357	125.638	-113.611	31.4558	125.597	-84.4012	47.399	151.302	-110.246	8.92235	134.245	-113.52	30.3594	135.782	-92.0381	46.264	159.672	-51.8164	6.93174	168.256	-32.465	29.065	137.859	-28.7787	17.575	
257	2.14167	105.18	-26.8127	43.4232	85.7789	-43.2156	32.2011	59.1167	-47.6724	21.1578	40.9809	-54.0644	10.3823	95.9548	-76.3358	-21.7213	88.2955	-98.8781	-36.38	78.0756	-116.368	-47.7973	103.837	-99.2293	-4.7527	91.9764	-114.615	21.4622	105.324	-85.3037	46.2927	119.349	-104.958	9.39479	111.828	-111.254	39.3948	117.177	-82.538	52.7274	139.177	-110.649	17.1654	125.057	-113.621	38.9257	130.261	-84.9494	52.6708	154.542	-59.57	7.74215	167.928	-37.8017	28.4119	134.597	-30.1749	19.3216	
258	2.15	105.771	-23.7219	47.511	78.4507	-34.5353	36.8552	54.7961	-39.7738	27.6653	33.2642	-42.8085	20.4529	88.0467	-70.2857	-15.2275	72.5893	-90.9144	-30.4972	62.1067	-107.034	-39.3235	93.6006	-96.0834	1.21915	75.803	-106.572	30.2798	96.5121	-79.63	50.0617	107.516	-106.152	16.2756	97.6459	-106.814	45.4639	111.621	-76.5962	55.692	125.738	-106.29	21.3253	113.067	-108.704	48.5602	120.566	-79.8553	55.3873	147.095	-58.8124	8.73824	165.135	-44.2582	28.6426	129.537	-28.3424	17.9271	
259	2.15833	103.771	-17.4598	47.7135	78.068	-30.1995	40.4054	51.9861	-30.5634	32.4861	31.499	-29.3922	29.6173	74.1459	-60.7568	-13.5851	57.631	-76.2475	-25.7979	41.8353	-92.1788	-38.9512	78.2952	-90.5016	4.45388	60.8418	-95.6876	30.6964	84.5239	-76.8491	53.2726	92.7997	-95.227	16.2694	84.0078	-101.139	44.5621	97.9021	-73.1578	58.2479	109.599	-107.244	25.7728	97.717	-100.196	52.2995	110.464	-76.4413	59.3718	139.166	-62.3906	8.83336	161.317	-45.7461	31.3854	125.991	-24.2635	21.3782	
260	2.16667	103.412	-10.2874	48.9031	78.3667	-18.9967	44.0896	49.2203	-14.9887	35.2112	28.4251	-10.8326	31.9764	70.1713	-53.6475	-13.2537	53.4779	-63.6125	-25.2314	32.8274	-74.9145	-40.0194	71.9734	-77.0687	2.6309	50.0579	-87.1779	27.4653	73.1139	-67.1008	53.4347	81.2946	-88.4549	17.5607	70.0834	-90.3601	46.5037	90.9648	-66.0626	58.6455	96.7975	-102.1	26.7006	85.5836	-96.2518	50.798	102.061	-72.8749	58.6779	134.28	-60.3115	13.8796	155.284	-45.7702	31.4823	124.711	-26.239	17.8878	
261	2.175	106.166	-6.43626	46.798	75.157	-10.2247	38.536	47.5139	-6.76675	28.576	27.9833	-2.39127	24.3347	70.1817	-39.8511	-16.4188	51.5136	-43.2376	-30.8165	34.5176	-55.529	-46.8099	64.7291	-66.4186	-4.59775	45.0088	-77.1078	19.116	66.3662	-58.3637	48.926	74.9055	-81.7055	11.9445	63.2553	-85.2674	37.9927	84.0571	-59.372	53.9234	93.5477	-91.9465	20.6575	76.4395	-90.0864	45.3222	93.881	-63.8794	52.1582	130.134	-57.1149	10.3174	150.954	-43.051	30.6901	125.357	-20.9101	19.5156	
